<?xml version="1.0" encoding="utf-8"?>
<svg version="1.1"
	 xmlns="http://www.w3.org/2000/svg" x="0px" y="0px" viewBox="0 0 24 24">
<rect x="8" y="5" width="14" height="1"/>
<rect x="8" y="12" width="14" height="1"/>
<rect x="8" y="19" width="14" height="1"/>
<path d="M4.4,8h-1V3.9l-0.9,0V3.2L4.4,3V8z"/>
<path d="M5.6,15h-3v-0.6l1.4-1.7c0.2-0.3,0.3-0.5,0.4-0.7c0.1-0.2,0.1-0.4,0.1-0.5c0-0.2,0-0.4-0.1-0.5c-0.1-0.1-0.2-0.2-0.4-0.2
	c-0.2,0-0.3,0.1-0.4,0.2s-0.1,0.4-0.1,0.6H2.5l0,0c0-0.4,0.1-0.8,0.4-1.1C3.1,10.2,3.5,10,3.9,10c0.5,0,0.8,0.1,1.1,0.4
	s0.4,0.6,0.4,1.1c0,0.3-0.1,0.6-0.2,0.8c-0.1,0.3-0.4,0.6-0.7,1l-0.7,1h1.8V15z"/>
<path d="M3.9,19.1c0.2,0,0.3-0.1,0.4-0.2c0.1-0.1,0.1-0.3,0.1-0.5c0-0.2-0.1-0.3-0.2-0.5S4.1,17.7,4,17.7c-0.1,0-0.3,0.1-0.4,0.2
	c-0.1,0.1-0.1,0.3-0.1,0.4H2.5l0,0c0-0.4,0.1-0.7,0.4-0.9C3.2,17.1,3.5,17,4,17c0.5,0,0.8,0.1,1.1,0.4c0.3,0.2,0.4,0.6,0.4,1
	c0,0.2-0.1,0.4-0.2,0.6S5,19.3,4.8,19.4c0.2,0.1,0.4,0.2,0.5,0.4c0.1,0.2,0.2,0.4,0.2,0.7c0,0.4-0.1,0.8-0.4,1
	C4.8,21.9,4.4,22,4,22c-0.4,0-0.8-0.1-1.1-0.4c-0.3-0.2-0.4-0.6-0.4-1l0,0h0.9c0,0.2,0.1,0.3,0.2,0.5c0.1,0.1,0.2,0.2,0.4,0.2
	c0.2,0,0.3-0.1,0.5-0.2s0.2-0.3,0.2-0.5c0-0.3-0.1-0.5-0.2-0.6c-0.1-0.1-0.3-0.2-0.5-0.2H3.5v-0.7H3.9z"/>
</svg>
